<svg width="302" height="122" viewBox="0 0 302 122" fill="none" xmlns="http://www.w3.org/2000/svg">
<path fill-rule="evenodd" clip-rule="evenodd" d="M184.935 0H205.133C206.063 0 206.816 0.752815 206.816 1.68343V40.1716C206.816 41.3784 208.447 41.7718 208.988 40.6936C212.252 34.1869 219.652 24.1014 234.163 24.1014C255.586 24.1014 267.726 45.1651 267.726 63.732V119.353C267.726 120.284 266.973 121.037 266.043 121.037H246.447C245.516 121.037 244.763 120.284 244.763 119.353V67.3032C244.763 50.8774 236.668 48.0213 230.24 48.0213C223.813 48.0213 206.317 53.7336 206.317 88.3669V119.353C206.317 120.284 205.564 121.037 204.633 121.037H185.219C184.288 121.037 183.536 120.284 183.536 119.353V90.3832C183.536 67.7458 161.689 59.4459 140.266 56.2342C131.818 54.9669 126.091 52.8106 122.187 50.4462C116.622 47.0755 113.853 40.5083 115.192 34.1415L115.249 33.8691C116.573 27.5629 121.672 22.7396 128.047 21.7749C136.188 20.5416 144.435 23.22 150.294 29.0042L163.1 41.6432C166.191 44.6923 170.704 45.7931 174.85 44.5107C179.768 42.9899 183.123 38.4503 183.142 33.3055L183.252 1.67965C183.252 0.752815 184.008 0 184.935 0ZM140.75 80.2637L105.561 69.2892C95.0023 65.998 87.2358 56.9832 85.5448 46.0541L84.1111 36.7896C82.3747 25.5919 72.7356 17.3298 61.4018 17.3298H14.3187C13.388 17.3298 12.6352 18.0827 12.6352 19.0133V39.0177C12.6352 39.9483 13.388 40.7012 14.3187 40.7012H49.4702C52.977 40.7012 54.4146 45.2408 51.5244 47.2268C47.6355 49.8976 41.2195 53.1813 31.361 58.0159C12.4385 67.3032 0.495605 76.5866 0.495605 92.5054C0.495605 108.424 9.58235 121.037 29.9538 121.037C44.8701 121.037 54.4297 114.337 58.4813 110.751C59.3476 109.987 60.7095 110.592 60.7095 111.746V119.353C60.7095 120.284 61.4623 121.037 62.3929 121.037H80.555C81.4857 121.037 82.2385 120.284 82.2385 119.353V96.3641C82.2385 93.4096 83.3772 90.5686 85.42 88.4349C88.3026 85.4199 92.5963 84.2093 96.629 85.2686C101.165 86.464 105.122 89.2407 107.785 93.1031L114.095 102.25C116.611 105.897 120.08 108.787 124.12 110.603L125.24 111.106C131.641 113.981 139.033 113.603 145.112 110.093C149.148 107.758 151.898 103.711 152.579 99.0992C153.809 90.7653 148.789 82.7718 140.746 80.2637H140.75ZM35.2878 100.866C33.4568 100.866 31.8188 100.643 30.3472 100.253C21.3399 97.8584 20.0272 85.5637 28.2136 81.1035L53.4953 67.3334C55.9126 66.0169 58.9012 67.5604 59.2228 70.2955C61.3223 88.1701 48.6001 100.87 35.2878 100.87V100.866ZM302 108.897C302 115.7 296.485 121.215 289.683 121.215C282.88 121.215 277.365 115.7 277.365 108.897C277.365 102.094 282.88 96.5797 289.683 96.5797C296.485 96.5797 302 102.094 302 108.897Z" fill="white"/>
</svg>
