<svg width="641" height="95" viewBox="0 0 641 95" fill="none" xmlns="http://www.w3.org/2000/svg">
    <path
        d="m 20.8669,67.829452 q -5.04,0 -8.76,-1.44 -3.6600004,-1.44 -5.5800004,-3.84 -1.92,-2.4 -1.92,-5.16 0,-2.28 1.2,-3.48 1.2,-1.26 3.66,-1.26 0,5.1 3.0600004,7.8 3.06,2.64 8.58,2.64 5.28,0 8.1,-1.74 2.82,-1.8 2.82,-5.28 0,-2.1 -1.08,-3.42 -1.02,-1.38 -3.54,-2.34 -2.46,-1.02 -7.14,-2.04 -5.52,-1.2 -8.76,-2.76 -3.2400004,-1.62 -4.7400004,-3.9 -1.5,-2.28 -1.5,-5.64 0,-3.36 1.86,-5.88 1.92,-2.58 5.4000004,-3.96 3.48,-1.38 8.1,-1.38 4.38,0 7.8,1.26 3.48,1.2 5.4,3.48 1.98,2.22 1.98,5.04 0,1.74 -1.14,2.76 -1.08,0.96 -3.42,0.96 -0.66,-4.56 -3.24,-6.66 -2.52,-2.1 -7.38,-2.1 -4.68,0 -7.2,1.68 -2.52,1.62 -2.52,4.62 0,2.1 0.9,3.48 0.96,1.32 3.18,2.28 2.28,0.96 6.36,1.86 6.12,1.32 9.6,2.94 3.54,1.62 5.1,3.96 1.56,2.34 1.56,5.76 0,5.46 -4.56,8.64 -4.56,3.12 -12.18,3.12 z m 43.379946,-10.98 h -19.38 q -1.14,0 -1.8,-0.6 -0.66,-0.6 -0.66,-1.62 0,-0.96 0.66,-1.8 l 21.96,-27.12 q 0.36,-0.42 1.02,-0.66 0.66,-0.3 1.44,-0.3 1.14,0 1.8,0.72 0.66,0.66 0.66,1.8 v 24.66 h 7.02 q 0,2.58 -1.02,3.78 -0.96,1.14 -3.06,1.14 h -2.94 v 6.72 q 0,4.26 -5.7,4.26 z m 0.24,-4.92 v -17.4 l 1.86,-2.46 -0.36,-0.24 -15.96,20.1 z m 33.779994,15.9 q -5.04,0 -8.76,-1.44 -3.66,-1.44 -5.58,-3.84 -1.92,-2.4 -1.92,-5.16 0,-2.28 1.2,-3.48 1.2,-1.26 3.66,-1.26 0,5.1 3.06,7.8 3.06,2.64 8.58,2.64 5.28,0 8.1,-1.74 2.82,-1.8 2.82,-5.28 0,-2.1 -1.08,-3.42 -1.02,-1.38 -3.54,-2.34 -2.46,-1.02 -7.14,-2.04 -5.52,-1.2 -8.76,-2.76 -3.24,-1.62 -4.74,-3.9 -1.5,-2.28 -1.5,-5.64 0,-3.36 1.86,-5.88 1.92,-2.58 5.4,-3.96 3.48,-1.38 8.1,-1.38 4.38,0 7.8,1.26 3.48,1.2 5.4,3.48 1.98,2.22 1.98,5.04 0,1.74 -1.14,2.76 -1.08,0.96 -3.42,0.96 -0.66,-4.56 -3.24,-6.66 -2.52,-2.1 -7.38,-2.1 -4.68,0 -7.2,1.68 -2.52,1.62 -2.52,4.62 0,2.1 0.9,3.48 0.96,1.32 3.18,2.28 2.28,0.96 6.36,1.86 6.12,1.32 9.6,2.94 3.54,1.62 5.1,3.96 1.56,2.34 1.56,5.76 0,5.46 -4.56,8.64 -4.56,3.12 -12.18,3.12 z m 37.61991,-15.66 q 0,-2.22 1.08,-3.48 1.08,-1.26 3.06,-1.26 h 17.7 q 0,2.22 -1.08,3.48 -1.08,1.26 -3.12,1.26 z m 59.21988,15.66 q -5.04,0 -8.76,-1.44 -3.66,-1.44 -5.58,-3.84 -1.92,-2.4 -1.92,-5.16 0,-2.28 1.2,-3.48 1.2,-1.26 3.66,-1.26 0,5.1 3.06,7.8 3.06,2.64 8.58,2.64 5.28,0 8.1,-1.74 2.82,-1.8 2.82,-5.28 0,-2.1 -1.08,-3.42 -1.02,-1.38 -3.54,-2.34 -2.46,-1.02 -7.14,-2.04 -5.52,-1.2 -8.76,-2.76 -3.24,-1.62 -4.74,-3.9 -1.5,-2.28 -1.5,-5.64 0,-3.36 1.86,-5.88 1.92,-2.58 5.4,-3.96 3.48,-1.38 8.1,-1.38 4.38,0 7.8,1.26 3.48,1.2 5.4,3.48 1.98,2.22 1.98,5.04 0,1.74 -1.14,2.76 -1.08,0.96 -3.42,0.96 -0.66,-4.56 -3.24,-6.66 -2.52,-2.1 -7.38,-2.1 -4.68,0 -7.2,1.68 -2.52,1.62 -2.52,4.62 0,2.1 0.9,3.48 0.96,1.32 3.18,2.28 2.28,0.96 6.36,1.86 6.12,1.32 9.6,2.94 3.54,1.62 5.1,3.96 1.56,2.34 1.56,5.76 0,5.46 -4.56,8.64 -4.56,3.12 -12.18,3.12 z m 33.59994,0 q -5.16,0 -8.34,-2.76 -3.12,-2.76 -3.12,-7.26 0,-4.56 3.3,-7.32 3.3,-2.82 8.7,-2.82 5.76,0 9.48,4.08 l 0.24,-0.24 q -0.66,-0.72 -1.5,-1.5 v -2.52 q 0,-3.06 -1.92,-4.74 -1.92,-1.68 -5.46,-1.68 -6.3,0 -9,4.98 -0.96,-0.48 -1.62,-1.26 -0.6,-0.84 -0.6,-1.68 0,-1.62 1.62,-3.06 1.62,-1.5 4.26,-2.4 2.7,-0.9 5.64,-0.9 5.7,0 8.94,2.82 3.3,2.82 3.3,7.8 v 16.44 q 0,2.1 -1.2,3.06 -1.2,0.96 -3.78,0.96 v -2.82 q 1.26,-1.32 1.38,-1.56 l -0.24,-0.24 q -3.9,4.62 -10.08,4.62 z m 0.9,-4.14 q 3.72,0 5.82,-1.56 2.16,-1.56 2.16,-4.32 0,-2.76 -2.1,-4.38 -2.1,-1.62 -5.76,-1.62 -3.42,0 -5.4,1.62 -1.92,1.56 -1.92,4.38 0,2.82 1.86,4.38 1.92,1.5 5.34,1.5 z m 23.99995,-22.2 h -4.98 q 0,-4.2 3.12,-4.2 h 1.86 v -3.66 q 0,-3.9 2.22,-6.36 2.22,-2.52 6.66,-2.52 2.52,0 3.9,1.14 1.38,1.08 1.38,2.52 0,1.26 -0.78,2.04 -1.86,-1.08 -4.02,-1.08 -2.22,0 -3.18,1.08 -0.96,1.08 -0.96,3.42 v 3.42 h 7.5 q 0,2.16 -0.96,3.18 -0.9,1.02 -2.82,1.02 h -3.72 v 22.5 q 0,1.98 -1.32,2.94 -1.26,0.9 -3.9,0.9 z m 28.61997,26.34 q -3.66,0 -6.54,-1.38 -2.88,-1.44 -4.5,-3.9 -1.62,-2.52 -1.62,-5.64 v -8.88 q 0,-3.18 1.68,-5.76 1.74,-2.58 4.62,-4.02 2.94,-1.5 6.36,-1.5 3.42,0 6.24,1.44 2.88,1.44 4.5,3.96 1.68,2.52 1.68,5.7 v 3.84 q 0,0.96 -0.72,1.62 -0.72,0.66 -1.74,0.66 h -17.52 v 2.7 q 0,3.06 1.92,4.92 1.98,1.86 5.64,1.86 3.66,0 5.58,-1.62 1.92,-1.62 1.92,-4.38 1.8,-0.12 3,0.72 1.26,0.78 1.26,2.34 0,1.92 -1.68,3.6 -1.62,1.68 -4.32,2.7 -2.7,1.02 -5.76,1.02 z m 7.56,-17.94 v -2.04 q 0,-3 -2.1,-4.86 -2.04,-1.92 -5.46,-1.92 -3.42,0 -5.52,1.92 -2.04,1.86 -2.04,4.86 v 2.04 z m 27.23989,-21.96 q 0,-1.14 0.84,-1.86 0.84,-0.78 2.04,-0.78 h 26.76 q 0,2.52 -1.02,3.72 -1.02,1.2 -3.12,1.2 h -19.86 v 13.14 h 16.8 q 0,2.52 -1.02,3.72 -1.02,1.2 -3.12,1.2 h -12.66 v 15 q 0,2.34 -1.38,3.48 -1.38,1.08 -4.26,1.08 z m 38.6399,39.9 q -3.66,0 -6.66,-1.38 -2.94,-1.38 -4.62,-3.72 -1.62,-2.4 -1.62,-5.34 v -9.84 q 0,-3 1.62,-5.46 1.68,-2.46 4.62,-3.9 2.94,-1.44 6.66,-1.44 3.72,0 6.66,1.44 3,1.44 4.62,3.9 1.68,2.46 1.68,5.46 v 9.84 q 0,2.94 -1.68,5.34 -1.68,2.34 -4.62,3.72 -2.94,1.38 -6.66,1.38 z m 0,-4.5 q 3.6,0 5.7,-1.68 2.16,-1.74 2.16,-4.5 v -9.42 q 0,-2.88 -2.16,-4.68 -2.1,-1.8 -5.7,-1.8 -3.54,0 -5.7,1.8 -2.16,1.8 -2.16,4.68 v 9.42 q 0,2.76 2.1,4.5 2.16,1.68 5.76,1.68 z m 32.88001,-21.96 q -3.36,0 -5.58,2.04 -2.22,1.98 -2.22,4.86 v 15.72 q 0,1.98 -1.32,2.94 -1.26,0.9 -3.9,0.9 v -26.64 q 0,-4.44 5.04,-4.44 v 3.66 q -0.96,1.02 -1.32,1.8 l 0.24,0.24 q 3.84,-5.7 9.6,-5.7 2.16,0 3.3,1.08 1.14,1.02 1.14,2.52 0,1.08 -0.54,1.92 -1.68,-0.9 -4.44,-0.9 z m 41.75988,26.46 q -5.04,0 -8.76,-1.44 -3.66,-1.44 -5.58,-3.84 -1.92,-2.4 -1.92,-5.16 0,-2.28 1.2,-3.48 1.2,-1.26 3.66,-1.26 0,5.1 3.06,7.8 3.06,2.64 8.58,2.64 5.28,0 8.1,-1.74 2.82,-1.8 2.82,-5.28 0,-2.1 -1.08,-3.42 -1.02,-1.38 -3.54,-2.34 -2.46,-1.02 -7.14,-2.04 -5.52,-1.2 -8.76,-2.76 -3.24,-1.62 -4.74,-3.9 -1.5,-2.28 -1.5,-5.64 0,-3.36 1.86,-5.88 1.92,-2.58 5.4,-3.96 3.48,-1.38 8.1,-1.38 4.38,0 7.8,1.26 3.48,1.2 5.4,3.48 1.98,2.22 1.98,5.04 0,1.74 -1.14,2.76 -1.08,0.96 -3.42,0.96 -0.66,-4.56 -3.24,-6.66 -2.52,-2.1 -7.38,-2.1 -4.68,0 -7.2,1.68 -2.52,1.62 -2.52,4.62 0,2.1 0.9,3.48 0.96,1.32 3.18,2.28 2.28,0.96 6.36,1.86 6.12,1.32 9.6,2.94 3.54,1.62 5.1,3.96 1.56,2.34 1.56,5.76 0,5.46 -4.56,8.64 -4.56,3.12 -12.18,3.12 z m 48.47995,-4.44 q 0,4.44 -5.04,4.44 v -3.84 q 0.54,-0.54 1.26,-1.62 l -0.24,-0.24 q -1.8,2.58 -4.56,4.14 -2.7,1.56 -5.94,1.56 -3.24,0 -5.76,-1.38 -2.46,-1.38 -3.84,-3.84 -1.32,-2.46 -1.32,-5.52 v -16.5 q 0,-1.98 1.32,-2.88 1.32,-0.96 3.96,-0.96 v 20.1 q 0,2.88 1.68,4.62 1.74,1.74 5.1,1.74 2.22,0 4.08,-0.9 1.86,-0.96 2.94,-2.52 1.14,-1.62 1.14,-3.48 v -15.72 q 0,-1.98 1.26,-2.88 1.32,-0.96 3.96,-0.96 z m 8.39993,-34.56 q 0,-4.08 5.28,-4.08 v 14.64 q -0.9,0.78 -1.26,1.32 l 0.18,0.3 q 1.8,-1.92 4.38,-3.06 2.64,-1.2 5.16,-1.2 5.34,0 8.52,2.82 3.18,2.82 3.18,7.56 v 10.26 q 0,3 -1.5,5.4 -1.44,2.4 -4.08,3.72 -2.64,1.32 -6,1.32 -5.88,0 -9.9,-5.16 l -0.18,0.24 q 0.36,0.54 1.2,1.5 0,1.74 -1.2,2.58 -1.2,0.84 -3.78,0.84 z m 12.72,34.38 q 3.66,0 5.58,-1.56 1.98,-1.56 1.98,-4.5 v -9.78 q 0,-2.82 -1.98,-4.38 -1.98,-1.62 -5.52,-1.62 -3.12,0 -5.34,1.68 -2.22,1.68 -2.22,4.02 v 10.38 q 0,2.46 2.16,4.14 2.16,1.62 5.34,1.62 z m 20.51993,-22.02 q 0,-4.44 5.04,-4.44 v 3.84 q -0.54,0.54 -1.26,1.62 l 0.24,0.24 q 1.8,-2.52 4.68,-4.08 2.88,-1.62 6.24,-1.62 4.86,0 7.68,2.88 2.82,2.88 2.82,7.44 v 16.92 q 0,1.98 -1.32,2.94 -1.26,0.9 -3.9,0.9 v -20.22 q 0,-2.88 -1.62,-4.56 -1.62,-1.68 -4.92,-1.68 -2.22,0 -4.2,0.96 -1.92,0.9 -3.12,2.52 -1.14,1.56 -1.14,3.42 v 15.72 q 0,1.98 -1.32,2.94 -1.26,0.9 -3.9,0.9 z m 45.29993,26.64 q -3.66,0 -6.54,-1.38 -2.88,-1.44 -4.5,-3.9 -1.62,-2.52 -1.62,-5.64 v -8.88 q 0,-3.18 1.68,-5.76 1.74,-2.58 4.62,-4.02 2.94,-1.5 6.36,-1.5 3.42,0 6.24,1.44 2.88,1.44 4.5,3.96 1.68,2.52 1.68,5.7 v 3.84 q 0,0.96 -0.72,1.62 -0.72,0.66 -1.74,0.66 h -17.52 v 2.7 q 0,3.06 1.92,4.92 1.98,1.86 5.64,1.86 3.66,0 5.58,-1.62 1.92,-1.62 1.92,-4.38 1.8,-0.12 3,0.72 1.26,0.78 1.26,2.34 0,1.92 -1.68,3.6 -1.62,1.68 -4.32,2.7 -2.7,1.02 -5.76,1.02 z m 7.56,-17.94 v -2.04 q 0,-3 -2.1,-4.86 -2.04,-1.92 -5.46,-1.92 -3.42,0 -5.52,1.92 -2.04,1.86 -2.04,4.86 v 2.04 z m 22.19988,17.94 q -4.26,0 -6.36,-2.4 -2.1,-2.46 -2.1,-6.42 v -17.52 h -5.58 q 0,-2.04 0.9,-3.12 0.9,-1.08 2.46,-1.08 h 2.28 v -5.7 q 0,-1.98 1.26,-2.88 1.32,-0.96 3.9,-0.96 v 9.54 h 7.98 q 0,4.2 -3.78,4.2 h -4.14 v 17.34 q 0,2.4 0.84,3.42 0.9,0.96 3.18,0.96 2.1,0 3.96,-1.08 0.78,0.78 0.78,2.1 0,1.44 -1.5,2.52 -1.5,1.08 -4.08,1.08 z m 22.73995,0 q -3.06,0 -5.76,-0.9 -2.7,-0.96 -4.38,-2.7 -1.62,-1.74 -1.62,-4.08 0,-2.88 3.48,-3.12 0.6,3.36 2.82,4.98 2.28,1.56 5.76,1.56 3.48,0 5.4,-1.02 1.92,-1.02 1.92,-3.12 0,-1.5 -0.78,-2.4 -0.78,-0.96 -2.52,-1.62 -1.68,-0.72 -4.86,-1.38 -3.96,-0.9 -6.3,-1.92 -2.34,-1.02 -3.6,-2.7 -1.2,-1.68 -1.2,-4.44 0,-2.34 1.44,-4.2 1.44,-1.92 3.96,-2.94 2.58,-1.08 5.82,-1.08 3,0 5.64,0.84 2.7,0.84 4.32,2.4 1.68,1.56 1.68,3.6 0,1.38 -1.08,2.22 -1.08,0.78 -3,0.9 -0.18,-2.64 -2.16,-4.14 -1.92,-1.56 -5.4,-1.56 -2.88,0 -4.56,1.08 -1.68,1.08 -1.68,2.88 0,1.92 1.56,2.88 1.62,0.9 5.46,1.74 6.3,1.26 9.24,3.48 3,2.16 3,6.18 0,4.08 -3.3,6.36 -3.3,2.22 -9.3,2.22 z"
        id="text14" aria-label="S4S - Safe For Subnets" fill="currentColor" />
</svg>
